#!OML:ASF F:\VICON\USERDATA\INSTALL\rory3\rory3.ASF
:FULLY-SPECIFIED
:DEGREES
188
root 11.6302 17.7894 -7.69615 8.86638 -53.6083 -6.48492
lowerback 11.6296 3.50094 4.82067
upperback 1.06058 5.28992 1.09889
thorax -5.06005 2.49675 -2.36917
lowerneck -21.4118 -4.47086 -9.68235
upperneck 23.8926 -5.16409 7.39239
head 11.8444 -2.29354 3.52831
rclavicle 1.28216e-014 -6.36111e-015
rhumerus -33.1832 -10.4368 -82.6705
rradius 28.55
rwrist 12.0067
rhand -11.2802 8.9191
rfingers 7.12502
rthumb 14.7505 -20.536
lclavicle 1.28216e-014 -6.36111e-015
lhumerus -40.0185 8.01615 82.1853
lradius 30.3026
lwrist -10.9814
lhand -14.9126 26.706
lfingers 7.12502
lthumb 11.249 56.3844
rfemur 12.0332 2.67818 29.7694
rtibia 12.8683
rfoot -18.8586 -0.809795
rtoes 2.83812
lfemur -33.6648 -7.08058 -10.2305
ltibia 17.166
lfoot -6.92853 7.87598
ltoes -8.41173
189
root 11.5459 17.7818 -7.60131 9.2407 -53.8483 -6.74788
lowerback 11.5948 3.52585 4.88379
upperback 0.918145 5.33935 1.14019
thorax -5.18596 2.5146 -2.37195
lowerneck -21.4805 -4.41747 -9.76011
upperneck 24.0687 -5.07085 7.40961
head 11.9191 -2.25761 3.56761
rclavicle -1.3418e-015 4.37326e-015
rhumerus -33.2922 -10.5715 -82.5989
rradius 28.3379
rwrist 12.4159
rhand -11.1407 9.04625
rfingers 7.12502
rthumb 14.885 -20.399
lclavicle -1.3418e-015 4.37326e-015
lhumerus -40.2845 8.36101 81.9829
lradius 30.1755
lwrist -10.8594
lhand -15.1553 26.4134
lfingers 7.12502
lthumb 11.0149 56.1044
rfemur 12.2918 2.68742 29.7285
rtibia 12.8531
rfoot -18.6672 -0.413908
rtoes 2.70582
lfemur -33.5772 -7.37895 -9.92362
ltibia 17.1461
lfoot -6.80873 8.1321
ltoes -7.48209
190
root 11.4579 17.7722 -7.50192 9.39459 -54.1119 -6.70966
lowerback 11.4045 3.63568 4.88065
upperback 0.823917 5.47552 1.06693
thorax -5.1628 2.58168 -2.45554
lowerneck -21.4547 -4.4509 -9.79349
upperneck 24.0788 -5.11925 7.43955
head 11.925 -2.2793 3.57674
rclavicle 7.50412e-015 -2.5842e-014
rhumerus -33.4132 -10.7187 -82.6023
rradius 28.2535
rwrist 12.4323
rhand -11.1823 9.06972
rfingers 7.12502
rthumb 14.8449 -20.3785
lclavicle 7.50412e-015 -2.5842e-014
lhumerus -40.4483 8.61048 81.7295
lradius 30.0478
lwrist -11.1389
lhand -14.8408 26.2319
lfingers 7.12502
lthumb 11.3183 55.9065
rfemur 12.5535 2.75493 29.4842
rtibia 12.7913
rfoot -18.3306 -0.169973
rtoes 1.47892
lfemur -33.4709 -7.52198 -9.90902
ltibia 17.1629
lfoot -6.84717 8.1573
ltoes -6.55011
191
root 11.367 17.7644 -7.3976 9.53253 -54.4125 -6.58079
lowerback 11.0719 3.73344 4.82734
upperback 0.735775 5.58026 0.974364
thorax -5.05851 2.63754 -2.51483
lowerneck -21.4566 -4.42695 -9.78027
upperneck 24.1439 -5.09809 7.45226
head 11.9482 -2.26786 3.58452
rclavicle -1.1778e-014 1.55052e-014
rhumerus -33.5685 -10.7094 -82.7033
rradius 28.2649
rwrist 12.1851
rhand -11.3361 8.97959
rfingers 7.12502
rthumb 14.6967 -20.4795
lclavicle -1.1778e-014 1.55052e-014
lhumerus -40.6007 8.93689 81.4373
lradius 29.8552
lwrist -11.6092
lhand -14.331 26.2565
lfingers 7.12502
lthumb 11.8099 55.9035
rfemur 12.7874 2.80619 29.1428
rtibia 12.6939
rfoot -17.9484 0.0100384
rtoes -0.610466
lfemur -33.3996 -7.33844 -10.1335
ltibia 17.2413
lfoot -6.9026 7.95964
ltoes -6.82739
192
root 11.2729 17.7645 -7.28748 9.54862 -54.7141 -6.58042
lowerback 11.012 3.77291 4.82148
upperback 0.684993 5.63018 0.949237
thorax -5.07304 2.6613 -2.54216
lowerneck -21.4944 -4.4005 -9.75083
upperneck 24.3052 -5.04578 7.34212
head 12.0086 -2.25713 3.54975
rclavicle 9.49197e-015 3.97569e-015
rhumerus -33.7604 -10.5563 -82.7905
rradius 28.3231
rwrist 12.0327
rhand -11.3023 8.80346
rfingers 7.12502
rthumb 14.7293 -20.6532
lclavicle 9.49197e-015 3.97569e-015
lhumerus -40.8164 9.33042 81.1779
lradius 29.7043
lwrist -11.9226
lhand -14.3025 26.4488
lfingers 7.12502
lthumb 11.8375 56.0942
rfemur 13.2579 2.9009 28.891
rtibia 12.6772
rfoot -17.6723 0.308193
rtoes -1.19188
lfemur -33.0386 -7.49737 -10.2243
ltibia 17.3326
lfoot -6.96634 8.16897
ltoes -7.43475
